Plot:

The hapless Mr. Bean (Rowan Atkinson) -- the incredibly awkward misfit with a knack for turning any situation into an all-out disaster -- heads to the French Riviera for a vacation and becomes ensnared in an accidental kidnapping and a case of mistaken identity. But he also discovers romance and a love for cycling. Willem Dafoe, Emma de Caunes, Max Baldry and Jean Rochefort co-star in this madcap continuation of the Mr. Bean franchise. 

Cast
Rowan Atkinson - Mr. Bean
Emma de Caunes - Sabine
Jean Rochefort - Maître D'
Karel Roden - Emil Duchevsky
Max Baldry - Stepan Duchevsky
Willem Dafoe - Carson Clay
Steve Pemberton - Vicar
Preston Nyman - Boy With Train
Sharlit Deyzac - Buffet Attendant
François Touch - Busker Accordion


Video
ID : 0
Format : MPEG-4 Visual
Format profile : Advanced Simple@L5
Format settings, BVOP : Yes
Format settings, QPel : No
Format settings, GMC : No warppoints
Format settings, Matrix : Custom
Codec ID : XVID
Codec ID/Hint : XviD
Duration : 1h 26mn
Bit rate : 989 Kbps
Width : 720 pixels
Height : 544 pixels
Display aspect ratio : 4:3
Frame rate : 23.976 fps
Color space : YUV
Chroma subsampling : 4:2:0
Bit depth : 8 bits
Scan type : Progressive
Bits/(Pixel*Frame) : 0.105
Stream size : 615 MiB (88%)
Writing library : XviD 1.2.1 (UTC 2008-12-04)

Audio
ID : 1
Format : MPEG Audio
Format version : Version 1
Format profile : Layer 3
Mode : Joint stereo
Mode extension : MS Stereo
Codec ID : 55
Codec ID/Hint : MP3
Duration : 1h 26mn
Bit rate mode : Constant
Bit rate : 128 Kbps
Channel(s) : 2 channels
Sampling rate : 48.0 KHz
Stream size : 79.6 MiB (11%)
Alignment : Aligned on interleaves
Interleave, duration : 83 ms (2.00 video frames)
Interleave, preload duration : 504 ms
Writing library : LAME3.98r
Encoding settings : -m j -V 4 -q 2 -lowpass 17 -b 128
Language : English








================================== 
http://thepiratebay.org/user/hiest
==================================









Screenshots: (Remove the * to view the screen shots)

*ht*tp*:*//loo*kpic*.*com/c1/i2/3521/h9znTDbW*.*png

*ht*tp*:*//loo*kpic*.*com/c1/i2/1517/2vjZqJ9d*.*png

*ht*tp*:*//loo*kpic*.*com/c1/i2/145/le4U0Ibc*.*png

